<?xml version="1.0" standalone="no"?>
<!DOCTYPE svg PUBLIC "-//W3C//DTD SVG 20010904//EN"
 "http://www.w3.org/TR/2001/REC-SVG-20010904/DTD/svg10.dtd">
<svg version="1.0" xmlns="http://www.w3.org/2000/svg"
 width="1269.000000pt" height="1269.000000pt" viewBox="0 0 1269.000000 1269.000000"
 preserveAspectRatio="xMidYMid meet">
<metadata>
Created by potrace 1.16, written by Peter Selinger 2001-2019
</metadata>
<g transform="translate(0.000000,1269.000000) scale(0.100000,-0.100000)"
fill="#000000" stroke="none">
<path d="M7705 10853 c-210 -10 -389 -26 -450 -39 -38 -8 -117 -26 -175 -40
-58 -13 -125 -29 -150 -34 -46 -11 -141 -44 -172 -61 -10 -5 -27 -9 -37 -9
-11 0 -23 -4 -26 -10 -3 -5 -14 -10 -24 -10 -26 0 -331 -148 -351 -171 -3 -3
-22 -13 -42 -22 -21 -10 -58 -33 -83 -52 -25 -19 -49 -35 -54 -35 -5 0 -28
-18 -50 -40 -22 -22 -44 -40 -50 -40 -14 0 -240 -227 -284 -285 -93 -123 -135
-182 -150 -210 -8 -17 -31 -55 -51 -85 -20 -30 -36 -59 -36 -64 0 -6 -20 -48
-44 -95 -24 -48 -51 -111 -61 -141 -9 -30 -23 -68 -30 -85 -25 -55 -55 -158
-74 -255 -6 -30 -18 -86 -27 -125 -21 -96 -43 -329 -43 -450 0 -151 24 -364
64 -570 31 -155 39 -190 51 -220 l13 -30 22 49 c12 28 25 86 30 130 11 106 38
250 56 306 25 74 43 149 43 176 0 13 4 32 10 42 16 29 61 145 74 192 16 54
151 347 167 360 4 3 17 25 29 50 25 49 95 161 141 225 16 22 38 57 49 77 11
20 26 41 34 45 7 4 28 29 45 55 37 55 303 328 320 328 6 0 11 5 11 10 0 6 6
10 13 10 8 0 24 12 38 26 13 14 38 33 54 41 17 8 39 23 50 33 30 27 240 134
315 160 36 12 70 26 75 30 6 4 33 13 60 20 28 7 55 17 60 21 6 4 39 13 75 19
36 7 97 18 135 26 196 38 570 42 750 9 44 -9 116 -19 160 -24 70 -8 207 -44
270 -72 11 -4 58 -20 105 -35 47 -15 92 -32 100 -39 8 -6 47 -24 85 -39 39
-15 86 -37 105 -50 19 -12 58 -33 85 -46 28 -13 76 -41 107 -62 31 -21 59 -38
62 -38 7 0 156 -107 188 -136 15 -13 47 -39 70 -57 24 -18 57 -46 73 -63 17
-16 41 -38 55 -49 14 -11 33 -32 43 -47 10 -16 23 -28 30 -28 6 0 23 -17 37
-37 14 -20 43 -56 65 -80 52 -55 82 -93 139 -176 25 -38 58 -84 71 -101 14
-18 25 -39 25 -46 0 -8 9 -23 19 -34 23 -24 155 -275 175 -332 7 -22 27 -68
44 -104 16 -36 41 -103 56 -150 14 -47 36 -117 50 -157 14 -39 30 -97 35 -130
6 -32 26 -128 46 -213 19 -85 39 -209 45 -275 6 -66 14 -149 20 -185 5 -36 14
-162 20 -282 12 -218 3 -551 -20 -743 -5 -44 -14 -145 -20 -225 -6 -80 -14
-165 -19 -190 -5 -25 -15 -79 -21 -120 -6 -41 -15 -93 -20 -115 -5 -22 -13
-69 -19 -105 -29 -185 -46 -277 -77 -397 -19 -73 -34 -145 -34 -159 0 -24 -14
-87 -28 -124 -9 -25 -42 -150 -62 -235 -10 -44 -32 -120 -49 -170 -16 -49 -39
-126 -50 -170 -11 -44 -34 -120 -51 -170 -17 -49 -35 -106 -39 -125 -5 -19
-18 -62 -30 -95 -12 -33 -29 -81 -37 -107 -8 -27 -19 -48 -24 -48 -6 0 -10
-15 -10 -33 0 -18 -9 -57 -21 -87 -11 -30 -32 -89 -46 -130 -36 -104 -52 -148
-74 -200 -44 -106 -92 -268 -85 -286 8 -19 8 -19 19 0 7 10 38 59 70 109 31
50 57 94 57 99 0 4 15 31 34 60 44 71 316 625 331 678 5 14 27 66 51 116 24
51 44 97 44 104 0 7 16 47 36 89 20 42 49 110 64 151 15 41 39 102 55 135 15
33 32 81 38 107 7 27 15 48 19 48 5 0 8 5 8 11 0 6 12 39 26 73 34 80 38 89
64 166 13 36 33 86 46 112 13 26 24 59 24 73 0 14 5 33 10 43 15 26 90 230 90
246 0 8 18 69 41 137 22 68 46 151 53 184 8 33 25 98 39 145 36 123 87 350 87
388 0 12 5 22 10 22 6 0 10 15 10 34 0 18 4 46 9 62 10 33 19 89 60 379 54
376 55 398 55 705 -1 294 -8 387 -49 660 -9 58 -20 121 -25 140 -6 19 -10 50
-10 68 0 33 -21 119 -64 267 -13 44 -27 98 -31 120 -4 22 -10 45 -14 50 -4 6
-18 39 -31 75 -12 36 -26 70 -30 75 -4 6 -11 25 -15 43 -4 19 -27 74 -51 123
-24 49 -44 95 -44 103 0 7 -11 30 -25 50 -14 20 -25 40 -25 44 0 4 -11 24 -25
44 -14 20 -25 41 -25 47 0 6 -35 63 -77 127 -43 64 -87 131 -98 149 -18 29
-48 66 -130 163 -47 55 -276 284 -315 315 -19 15 -59 46 -89 70 -90 71 -183
135 -236 163 -27 15 -63 35 -78 46 -15 11 -65 38 -110 60 -45 23 -93 48 -107
57 -14 9 -50 25 -80 36 -30 10 -75 29 -100 41 -25 12 -63 27 -85 34 -22 7 -62
21 -89 31 -27 11 -54 19 -62 19 -7 0 -33 9 -58 20 -25 10 -81 27 -123 36 -43
9 -94 20 -113 24 -59 13 -142 31 -210 46 -86 18 -567 44 -695 37z"/>
<path d="M7760 9286 c-103 -52 -116 -60 -181 -107 -53 -38 -169 -131 -273
-219 -64 -54 -406 -401 -486 -493 -46 -53 -88 -97 -92 -97 -4 0 -8 -5 -8 -11
0 -10 -47 -70 -122 -154 -21 -23 -38 -47 -38 -52 0 -5 -16 -27 -36 -49 -19
-21 -42 -52 -51 -69 -9 -16 -19 -32 -23 -35 -14 -10 -76 -107 -93 -145 -10
-22 -22 -42 -26 -45 -11 -6 -142 -261 -161 -310 -7 -19 -26 -64 -42 -98 -16
-35 -31 -78 -35 -95 -3 -18 -18 -72 -34 -120 -52 -160 -80 -342 -96 -615 l-6
-107 94 -44 c52 -25 124 -64 160 -88 37 -23 70 -43 75 -43 4 0 28 -17 53 -38
25 -21 63 -48 84 -61 20 -12 37 -26 37 -31 0 -4 23 -24 50 -44 28 -20 50 -42
50 -48 0 -7 17 -25 38 -41 20 -15 64 -59 97 -98 33 -40 71 -84 85 -99 14 -14
38 -46 55 -71 16 -24 46 -66 66 -94 20 -27 40 -60 44 -73 3 -12 17 -34 29 -50
22 -26 42 -63 81 -147 11 -22 24 -47 31 -55 6 -8 23 -46 37 -85 14 -38 39
-106 57 -150 18 -44 38 -107 45 -140 7 -33 22 -96 33 -140 33 -132 44 -212 49
-377 7 -178 -7 -325 -44 -498 -13 -63 -28 -137 -32 -165 -9 -57 -52 -204 -76
-261 -9 -21 -20 -57 -25 -79 -4 -22 -25 -78 -45 -125 -20 -47 -39 -96 -42
-110 -7 -31 -134 -292 -203 -415 -67 -120 -158 -310 -170 -354 -46 -178 -52
-298 -21 -473 19 -107 19 -107 72 -163 29 -30 60 -55 69 -55 19 0 75 -48 67
-57 -12 -11 -77 8 -104 31 -15 12 -36 25 -45 29 -23 8 -146 109 -147 121 -1 4
-18 29 -40 55 -49 59 -84 174 -83 278 1 91 34 245 67 311 14 27 25 54 25 60 0
5 7 15 15 22 8 7 15 20 15 29 0 9 23 53 50 99 28 46 50 86 50 90 0 4 20 37 44
74 25 37 47 76 50 85 3 10 21 41 39 68 18 28 39 66 46 85 8 19 30 67 49 105
19 39 45 102 58 140 12 39 36 109 53 156 17 47 35 112 40 145 5 32 16 84 25
114 40 144 57 285 63 515 7 268 -5 408 -49 565 -16 58 -33 124 -38 146 -5 23
-29 84 -53 135 -24 52 -49 110 -57 129 -7 19 -22 47 -32 62 -10 14 -26 44 -36
65 -21 46 -88 149 -102 158 -5 3 -10 14 -10 23 0 9 -18 37 -40 62 -22 25 -42
53 -46 63 -3 9 -9 17 -14 17 -5 0 -11 8 -14 18 -3 9 -21 33 -39 52 -19 19 -36
40 -38 47 -14 39 -267 298 -334 342 -22 14 -43 31 -48 38 -4 7 -44 37 -90 67
-45 30 -93 64 -107 75 -14 11 -33 21 -42 21 -9 0 -20 5 -23 10 -14 22 -268
161 -360 197 -16 6 -66 28 -110 47 -44 20 -86 36 -93 36 -7 0 -36 7 -63 16
-27 9 -52 14 -56 11 -3 -4 10 -63 29 -132 20 -69 34 -125 31 -125 -2 0 -14 7
-27 15 -13 9 -61 29 -107 45 -128 45 -166 39 -136 -23 8 -18 31 -68 52 -112
41 -86 75 -173 75 -191 0 -6 -13 -23 -29 -38 -42 -39 -181 -179 -213 -215 -15
-16 -41 -49 -58 -74 -17 -25 -34 -47 -38 -49 -4 -2 -27 -32 -52 -68 -24 -36
-50 -71 -57 -78 -7 -8 -26 -30 -41 -50 -15 -21 -45 -56 -67 -78 -103 -106
-127 -163 -105 -245 21 -78 102 -215 171 -292 9 -10 46 -37 82 -61 85 -56 189
-82 402 -100 119 -10 179 -20 233 -39 77 -27 142 -69 142 -91 0 -8 6 -16 13
-19 20 -8 79 -124 75 -149 -2 -14 -13 -26 -28 -30 -14 -4 -65 -19 -115 -34
-49 -14 -114 -36 -143 -50 -29 -13 -59 -24 -66 -24 -8 0 -53 -20 -100 -45 -48
-25 -93 -45 -101 -45 -7 0 -15 -3 -17 -7 -4 -11 -128 -93 -139 -93 -6 0 -28
-17 -50 -37 -23 -21 -48 -42 -57 -47 -10 -5 -33 -25 -53 -45 -20 -20 -47 -46
-60 -57 -68 -61 -209 -229 -209 -249 0 -7 -7 -18 -16 -26 -8 -7 -25 -31 -36
-53 -11 -22 -27 -46 -34 -54 -8 -7 -14 -20 -14 -28 0 -8 -17 -49 -39 -92 -51
-102 -112 -331 -131 -492 -33 -282 26 -679 127 -862 43 -78 62 -128 48 -128
-12 0 -179 72 -190 81 -5 5 -17 9 -27 9 -20 0 -149 57 -158 70 -3 4 -23 13
-45 20 -22 7 -75 32 -117 56 -42 24 -82 44 -88 44 -7 0 -26 10 -43 23 -18 12
-41 27 -52 33 -57 31 -99 57 -153 93 -33 23 -62 41 -65 41 -8 0 -133 92 -186
138 -24 20 -56 44 -71 53 -15 9 -35 27 -46 41 -10 13 -33 33 -50 46 -34 24
-234 221 -234 231 0 3 -22 29 -48 58 -80 89 -116 133 -132 161 -8 15 -17 29
-20 32 -14 13 -90 120 -90 125 0 4 -15 30 -34 58 -19 29 -40 66 -47 82 -8 17
-16 32 -19 35 -3 3 -11 16 -17 30 -7 14 -26 48 -42 75 -17 28 -30 55 -31 62 0
6 -18 51 -41 99 -22 49 -43 102 -46 118 -3 17 -12 44 -20 59 -19 38 -83 236
-83 257 0 10 -11 62 -24 116 -61 244 -69 317 -69 639 0 328 7 403 55 585 16
63 32 131 35 150 2 19 10 49 18 65 7 17 29 71 50 120 47 117 154 332 180 362
11 13 27 36 35 51 21 37 127 180 161 217 15 17 58 64 95 105 38 41 75 79 84
84 8 5 34 27 56 50 55 54 114 102 194 157 36 24 71 50 78 57 8 7 28 20 45 28
18 9 46 26 62 38 66 49 435 226 501 241 16 4 58 19 94 32 76 30 147 52 210 63
25 5 103 23 175 40 239 57 304 62 725 64 441 2 466 6 358 59 -29 15 -96 45
-148 67 -52 23 -103 45 -112 51 -10 5 -23 9 -29 9 -5 0 -58 18 -117 41 -59 22
-127 44 -152 48 -25 5 -88 20 -140 34 -249 67 -284 70 -675 71 -395 0 -406 -1
-685 -75 -159 -42 -179 -48 -226 -69 -23 -11 -70 -29 -105 -40 -107 -36 -351
-170 -483 -265 -192 -138 -424 -356 -545 -512 -35 -46 -67 -83 -70 -83 -3 0
-12 -13 -19 -28 -7 -16 -28 -46 -47 -68 -19 -21 -35 -44 -35 -50 0 -6 -9 -22
-21 -35 -24 -28 -89 -133 -89 -144 0 -5 -10 -22 -23 -39 -31 -41 -133 -245
-164 -326 -14 -36 -28 -69 -33 -75 -13 -16 -53 -129 -103 -285 -42 -133 -83
-297 -123 -490 -17 -87 -43 -436 -44 -591 0 -145 27 -493 45 -582 30 -140 75
-323 100 -397 14 -42 25 -83 25 -92 0 -9 4 -18 10 -20 5 -1 16 -30 24 -62 21
-79 156 -365 192 -407 8 -8 14 -21 14 -28 0 -7 13 -31 29 -54 16 -23 49 -75
75 -114 25 -40 55 -80 66 -90 11 -10 20 -23 20 -31 0 -7 20 -35 45 -61 25 -26
45 -52 45 -56 0 -8 70 -87 146 -165 24 -25 44 -49 45 -55 0 -5 20 -26 44 -45
24 -19 47 -43 50 -52 3 -9 15 -20 25 -23 10 -3 33 -23 51 -43 18 -20 42 -44
55 -52 13 -9 43 -35 68 -58 25 -23 48 -42 53 -42 4 0 26 -18 47 -40 22 -22 45
-40 52 -40 6 0 17 -7 24 -16 8 -8 54 -42 103 -76 50 -33 99 -69 111 -79 11
-11 25 -19 32 -19 7 0 26 -11 42 -25 17 -14 33 -25 36 -25 4 0 19 -8 34 -19
49 -33 196 -117 232 -131 19 -8 60 -29 90 -47 30 -18 61 -33 68 -33 7 0 49
-19 95 -41 45 -23 105 -50 132 -60 28 -10 84 -32 125 -50 41 -17 91 -35 110
-39 19 -5 96 -29 170 -54 74 -25 155 -50 180 -56 25 -6 108 -26 185 -44 162
-40 496 -100 670 -120 235 -28 677 -40 976 -27 309 13 415 23 644 56 294 43
369 55 550 91 220 42 261 50 350 65 39 6 140 29 225 50 86 21 169 39 185 39
16 0 54 7 84 15 129 33 318 75 342 75 14 0 99 18 190 41 90 22 205 46 254 54
50 7 180 31 290 53 110 22 243 45 295 51 345 41 456 51 625 61 447 24 1031 1
1554 -61 93 -11 110 -5 90 32 -7 13 -15 29 -18 36 -14 29 -126 188 -163 231
-90 106 -239 249 -276 264 -10 3 -27 16 -39 27 -22 21 -173 100 -258 135 -21
9 -96 29 -165 44 -111 23 -147 26 -320 27 -159 0 -219 -4 -325 -23 -71 -12
-145 -25 -163 -28 -40 -6 -250 -71 -274 -84 -10 -6 -30 -10 -45 -10 -16 0 -62
-14 -103 -31 -41 -17 -109 -42 -150 -55 -40 -13 -115 -39 -165 -58 -49 -19
-119 -44 -155 -56 -36 -12 -103 -35 -150 -51 -47 -16 -92 -29 -101 -29 -9 0
-70 -19 -135 -41 -66 -23 -144 -47 -174 -54 -30 -8 -107 -28 -170 -46 -105
-30 -127 -33 -260 -33 l-146 -1 -57 35 c-32 19 -68 46 -81 60 -48 53 -77 203
-57 300 6 30 17 84 25 120 7 36 34 113 60 172 25 59 46 112 46 117 0 5 20 49
45 97 25 49 45 94 45 100 0 7 20 47 44 90 24 44 52 99 62 124 10 25 27 61 39
80 12 19 28 51 36 69 8 19 35 79 62 134 26 54 47 105 47 113 0 8 20 55 45 104
25 49 45 100 45 113 0 12 6 31 13 42 20 30 87 191 87 209 0 13 28 92 61 171 8
19 54 205 79 320 46 206 44 385 -6 565 -45 164 -51 183 -81 250 -17 36 -38 88
-49 115 -10 28 -37 84 -60 125 -22 41 -45 86 -49 100 -4 14 -25 56 -46 93 -22
38 -39 74 -39 81 0 7 -11 34 -24 62 -50 102 -66 152 -86 264 -29 167 -27 227
15 426 3 11 27 51 54 88 64 88 115 115 216 115 39 0 99 -6 135 -15 36 -8 79
-16 95 -19 197 -28 205 -28 293 -15 48 8 98 21 112 29 46 29 140 103 140 111
0 5 15 26 34 49 39 47 117 226 140 326 13 51 16 105 14 199 l-3 129 -30 9
c-16 5 -43 15 -60 23 -58 28 -190 78 -228 86 -37 9 -69 28 -130 76 -34 27
-111 120 -120 146 -4 10 -27 51 -52 92 -25 41 -45 78 -45 81 0 4 -20 32 -45
62 -25 30 -45 60 -45 66 0 7 -10 23 -22 36 -13 14 -47 54 -76 90 -29 36 -99
114 -155 173 -56 60 -103 115 -105 122 -2 8 13 45 32 82 20 37 36 72 36 77 0
5 22 55 49 110 104 217 141 297 141 302 0 4 -37 4 -82 0 -71 -6 -97 -14 -178
-54 -52 -26 -124 -66 -159 -89 -89 -59 -97 -57 -105 18 -3 34 -6 95 -6 135 0
41 -3 74 -7 74 -5 -1 -37 -16 -73 -34z"/>
</g>
</svg>
