<svg xmlns="http://www.w3.org/2000/svg" width="274" height="341" style="shape-rendering:geometricPrecision;text-rendering:geometricPrecision;image-rendering:optimizeQuality;fill-rule:evenodd;clip-rule:evenodd"><path fill="#fefefe" d="M-.5-.5h274v341H-.5V-.5Z" style="opacity:1"/><path fill="#00CA74" d="M147.5 31.5c5.416-.098 10.25 1.569 14.5 5 5.197 7.093 7.697 15.093 7.5 24a1516.021 1516.021 0 0 1-11 117.5c-.768 33.851-3.934 67.684-9.5 101.5a48.932 48.932 0 0 1-6.5 9.5 380.63 380.63 0 0 1-17.5 5.5c-6.324-.214-11.658-2.547-16-7a74.043 74.043 0 0 1-5.5-22c1.8-27.659 3.633-55.325 5.5-83a1238.84 1238.84 0 0 0 11-85 1602.003 1602.003 0 0 1 5.5-26.5l-1-2.5a148.73 148.73 0 0 1-18 17.5c-5.887 2.093-8.887.093-9-6 .536-3.907 2.036-7.407 4.5-10.5A678.148 678.148 0 0 1 132.5 38c4.836-2.757 9.836-4.923 15-6.5Z" style="opacity:1"/></svg>
