<svg xmlns="http://www.w3.org/2000/svg" width="240" height="300" style="shape-rendering:geometricPrecision;text-rendering:geometricPrecision;image-rendering:optimizeQuality;fill-rule:evenodd;clip-rule:evenodd"><path fill="#fefefe" d="M-.5-.5h240v300H-.5V-.5Z" style="opacity:1"/><path fill="#676767" d="M167.5 73.5c.656 1.122.989 2.455 1 4a321.508 321.508 0 0 1-2 19c-.04-7.687.293-15.354 1-23Z" style="opacity:1"/><path fill="#FB565A" d="M167.5 73.5a236.299 236.299 0 0 0-1 23 179.765 179.765 0 0 1-10.5 37 99919.834 99919.834 0 0 0-41 70 1040.589 1040.589 0 0 0-13 34 46.94 46.94 0 0 0-1.5 11 57.725 57.725 0 0 1 15-2.5 400.05 400.05 0 0 1 40 0c14.19 5.283 14.524 10.949 1 17a231.268 231.268 0 0 1-32-.5 507.999 507.999 0 0 1-45 2.5 89.366 89.366 0 0 0-13-3c-3.78-1.377-6.446-3.877-8-7.5a60.653 60.653 0 0 1-2-18c2.46-22.882 9.627-44.215 21.5-64a1122.57 1122.57 0 0 0 57-94 222.651 222.651 0 0 1 5-16c4.081-19.247-3.419-26.08-22.5-20.5-5.119 2.785-9.286 6.618-12.5 11.5a208.238 208.238 0 0 0-5 28 14.582 14.582 0 0 0-4 6c-7.772 5.308-13.272 3.641-16.5-5 .454-14.066 3.62-27.4 9.5-40 13.83-13.572 30.33-18.072 49.5-13.5 21.104 7.372 30.77 22.206 29 44.5Z" style="opacity:1"/><path fill="#a8a8a8" d="M56.5 236.5a60.653 60.653 0 0 0 2 18c-2.98-5.772-3.647-11.772-2-18Z" style="opacity:1"/></svg>
