<svg xmlns="http://www.w3.org/2000/svg" width="239" height="300" style="shape-rendering:geometricPrecision;text-rendering:geometricPrecision;image-rendering:optimizeQuality;fill-rule:evenodd;clip-rule:evenodd"><path fill="#fefefe" d="M-.5-.5h239v300H-.5V-.5Z" style="opacity:1"/><path fill="#a1a1a1" d="M173.5 43.5c1.143 3.476 1.31 7.142.5 11-.383.556-.883.89-1.5 1a45.78 45.78 0 0 0 1-12Z" style="opacity:1"/><path fill="#EFC849" d="M173.5 43.5a45.78 45.78 0 0 1-1 12c-9.29 17.792-22.29 32.292-39 43.5a96.915 96.915 0 0 0-8 8.5c10.048 1.441 19.715 4.608 29 9.5 10.432 12.212 14.432 26.379 12 42.5-2.301 6.326-3.635 12.993-4 20a87.652 87.652 0 0 1-5 22c-1.424 2.015-2.09 4.348-2 7-6.394 19.557-17.061 36.39-32 50.5-6.706 5.427-14.373 8.26-23 8.5-19.392-.409-33.726-9.075-43-26a134.175 134.175 0 0 1-1-20 237.767 237.767 0 0 1 4.5-21c4.084-6.34 8.75-6.673 14-1a120.818 120.818 0 0 1-3 22c-4.075 15.843 1.425 21.009 16.5 15.5 9.129-6.411 16.296-14.577 21.5-24.5 5.677-11.331 10.177-22.998 13.5-35 1.434-6.275 2.1-12.775 2-19.5-.001-4.015-.335-7.849-1-11.5-.188-6.274-1.521-12.274-4-18a11.456 11.456 0 0 0-2.5-1 805.192 805.192 0 0 1-19.5 4 19.677 19.677 0 0 1-10-2.5l-7.5-9.5c-.667-3-.667-6 0-9A119.132 119.132 0 0 1 93.5 97a243.59 243.59 0 0 0 21-16 569.963 569.963 0 0 1 29-28 2.427 2.427 0 0 0-2-.5c-8.34-.166-16.673 0-25 .5-2.865.183-5.531.683-8 1.5-6.333.267-12.666.6-19 1a43.856 43.856 0 0 1-12-1.5c-1.963-6.613-.963-12.613 3-18a22.948 22.948 0 0 1 5-2 98.447 98.447 0 0 1 23 .5 445.895 445.895 0 0 0 15.5-2 767.333 767.333 0 0 0 37.5 1.5 32.454 32.454 0 0 1 9 4c1.66 1.488 2.66 3.321 3 5.5Z" style="opacity:1"/><path fill="#a7a7a7" d="M141.5 52.5a712.728 712.728 0 0 1-33 2c2.469-.817 5.135-1.317 8-1.5 8.327-.5 16.66-.666 25-.5Z" style="opacity:1"/><path fill="#5e5e5e" d="M124.5 146.5c.665 3.651.999 7.485 1 11.5.1 6.725-.566 13.225-2 19.5a459.841 459.841 0 0 0 1-31Z" style="opacity:1"/><path fill="#ccc" d="M166.5 159.5c.738 2.217 1.071 4.384 1 6.5-2.063 4.466-3.73 8.966-5 13.5.365-7.007 1.699-13.674 4-20Z" style="opacity:1"/><path fill="#b2b2b2" d="M157.5 201.5c.09 2.652-.576 4.985-2 7-.09-2.652.576-4.985 2-7Z" style="opacity:1"/><path fill="#a2a2a2" d="M56.5 221.5a134.175 134.175 0 0 0 1 20c-1.548-3.534-2.214-7.367-2-11.5.002-3.021.336-5.854 1-8.5Z" style="opacity:1"/></svg>
