<svg xmlns="http://www.w3.org/2000/svg" width="239" height="300" style="shape-rendering:geometricPrecision;text-rendering:geometricPrecision;image-rendering:optimizeQuality;fill-rule:evenodd;clip-rule:evenodd"><path fill="#fefefe" d="M-.5-.5h239v300H-.5V-.5Z" style="opacity:1"/><path fill="#c5c5c5" d="M172.5 101.5c1.413 5.178.413 9.844-3 14 .27-4.95 1.27-9.617 3-14Z" style="opacity:1"/><path fill="#00CA74" d="M97.5 151.5c-.961 1.765-1.295 3.765-1 6 1.291.237 2.291-.096 3-1 9.092-4.247 17.259-9.914 24.5-17a1019.404 1019.404 0 0 1 9-44 91.824 91.824 0 0 1 9.5-20 34.307 34.307 0 0 1 7.5-3 66.075 66.075 0 0 1 15.5 4.5 17.843 17.843 0 0 1 4.5 5.5 1700.91 1700.91 0 0 1 2.5 19c-1.73 4.383-2.73 9.05-3 14a597.174 597.174 0 0 0-4 28 246.139 246.139 0 0 0-2 19 255.46 255.46 0 0 0-4 33 53.956 53.956 0 0 1-2.5 8 50.464 50.464 0 0 0-.5 10 71.507 71.507 0 0 0-3.5 21 103.054 103.054 0 0 1-8 21c-7.798 5.699-15.965 6.199-24.5 1.5-6.939-2.283-11.105-7.116-12.5-14.5a113.964 113.964 0 0 1-1.5-10.5 1352.331 1352.331 0 0 0 14-68.5c-4.863-.102-9.196 1.731-13 5.5a54.628 54.628 0 0 1-7 2c-4.384 3.74-9.55 5.574-15.5 5.5-9.156.509-16.822-2.491-23-9-2.172-9.973-1.172-19.64 3-29a945.014 945.014 0 0 1 2-24 2497.69 2497.69 0 0 1 17-73c1.117-1.45 1.784-3.116 2-5a6.975 6.975 0 0 1 3.5-2.5 72.496 72.496 0 0 1 17 0c9.582 7.575 12.748 17.408 9.5 29.5a2273.487 2273.487 0 0 1-18.5 88Z" style="opacity:1"/><path fill="#848484" d="M97.5 151.5c-.423 2.281.244 3.948 2 5-.709.904-1.709 1.237-3 1-.295-2.235.039-4.235 1-6Z" style="opacity:1"/><path fill="#9d9d9d" d="M165.5 143.5a112.97 112.97 0 0 1-.5 15c-.21 1.558-.71 2.891-1.5 4 .436-6.5 1.102-12.834 2-19Z" style="opacity:1"/><path fill="#a6a6a6" d="M159.5 195.5a13503.61 13503.61 0 0 1-3 18c-.165-3.35.002-6.683.5-10a53.956 53.956 0 0 0 2.5-8Z" style="opacity:1"/></svg>
