<svg xmlns="http://www.w3.org/2000/svg" width="240" height="300" style="shape-rendering:geometricPrecision;text-rendering:geometricPrecision;image-rendering:optimizeQuality;fill-rule:evenodd;clip-rule:evenodd"><path fill="#fefefe" d="M-.5-.5h240v300H-.5V-.5Z" style="opacity:1"/><path fill="#aeaeae" d="M175.5 45.5c-2.117 2.154-4.784 3.154-8 3 2.436-1.371 5.103-2.371 8-3Z" style="opacity:1"/><path fill="#FB565A" d="M175.5 45.5c-2.897.629-5.564 1.629-8 3a29.886 29.886 0 0 1-7 2c-3.333-1.333-6.667-1.333-10 0a314.262 314.262 0 0 1-28-3v19c-1.527 5.796-2.527 11.796-3 18a80.78 80.78 0 0 0-3 15c-1.306 5.116-1.973 10.449-2 16-1.258 3.623-1.258 7.29 0 11 12.758-7.131 25.091-6.631 37 1.5l15.5 15.5c1.622 11.236 1.955 22.569 1 34-.121 6.625-1.288 12.958-3.5 19-1.268 2.405-1.935 5.072-2 8a189.992 189.992 0 0 0-12.5 25l-8 12a103.01 103.01 0 0 0-12.5 11.5c-4.534 2.667-9.2 4.834-14 6.5-2.928.065-5.595.732-8 2-6.586 1.126-13.253 1.292-20 .5-12.347-5.52-21.513-14.353-27.5-26.5-1.612-12.437.555-24.103 6.5-35 3.874-3.491 8.207-3.991 13-1.5 2.082 2.409 3.082 5.243 3 8.5a120.56 120.56 0 0 0-4 23.5 33.799 33.799 0 0 0 1.5 8.5c.872 2.113 2.372 3.446 4.5 4 17.683-4.104 29.517-14.771 35.5-32a237.206 237.206 0 0 0 8-25c.5-7.326.666-14.659.5-22 .206-2.995-.46-5.662-2-8-.902-4.547-3.735-6.547-8.5-6a487.384 487.384 0 0 0-28.5 9c-7.495-.438-13.995-3.104-19.5-8l-.5-10.5a320.125 320.125 0 0 1 4-36.5c1.123-4.85 2.123-9.85 3-15a432.995 432.995 0 0 1 7.5-44 25.792 25.792 0 0 0 2-8 11.529 11.529 0 0 1 3.5-4.5 86.63 86.63 0 0 0 10-2.5 320.863 320.863 0 0 1 38 4 231.94 231.94 0 0 0 30-3.5 42.498 42.498 0 0 1 13 0c4.783 1.138 6.117 3.972 4 8.5-2.475 2.741-5.475 4.741-9 6Z" style="opacity:1"/><path fill="#acacac" d="M122.5 66.5c.203 6.33-.797 12.33-3 18 .473-6.204 1.473-12.204 3-18Z" style="opacity:1"/><path fill="#b0b0b0" d="M76.5 89.5a259.562 259.562 0 0 1-3 15c-.376-5.394.624-10.394 3-15Z" style="opacity:1"/><path fill="#b8b8b8" d="M116.5 99.5c.245 5.584-.422 10.917-2 16 .027-5.551.694-10.884 2-16Z" style="opacity:1"/><path fill="#8c8c8c" d="M126.5 156.5c1.54 2.338 2.206 5.005 2 8-1.268-2.405-1.935-5.072-2-8Z" style="opacity:1"/><path fill="#a8a8a8" d="M164.5 196.5c.206 2.995-.46 5.662-2 8 .065-2.928.732-5.595 2-8Z" style="opacity:1"/><path fill="#acacac" d="M115.5 259.5c-2.338 1.54-5.005 2.206-8 2 2.405-1.268 5.072-1.935 8-2Z" style="opacity:1"/></svg>
