<svg xmlns="http://www.w3.org/2000/svg" width="240" height="300" style="shape-rendering:geometricPrecision;text-rendering:geometricPrecision;image-rendering:optimizeQuality;fill-rule:evenodd;clip-rule:evenodd"><path fill="#fefefe" d="M-.5-.5h240v300H-.5V-.5Z" style="opacity:1"/><path fill="#EFC849" d="M148.5 65.5c-.574-4.683-1.24-9.35-2-14-1.291-.237-2.291.096-3 1a512.432 512.432 0 0 1-25.5 46 139.087 139.087 0 0 0-12.5 33.5c5.098-3.377 10.765-6.044 17-8 4.757-.81 9.424-.476 14 1a94.09 94.09 0 0 1 11 7 228.729 228.729 0 0 1 15.5 19.5c11.543 28.385 9.876 56.052-5 83a311.18 311.18 0 0 1-22.5 19.5c-10.392 6.715-21.725 9.381-34 8a246.086 246.086 0 0 1-19-9c-15.169-13.315-22.502-30.148-22-50.5a530.01 530.01 0 0 1 1-41 325.908 325.908 0 0 1 15.5-67c6.97-16.617 15.97-31.95 27-46A85.405 85.405 0 0 1 120.5 34c21.469-4.426 35.303 3.74 41.5 24.5a342.91 342.91 0 0 1 2.5 20c1.526 8.499-1.807 11.665-10 9.5a33.648 33.648 0 0 1-3.5-8.5 186.893 186.893 0 0 0-2.5-14Z" style="opacity:1"/><path fill="#c4c4c4" d="M143.5 52.5c.709-.904 1.709-1.237 3-1 .76 4.65 1.426 9.317 2 14a175.333 175.333 0 0 0-4-10c1.592-1.725 1.258-2.725-1-3Z" style="opacity:1"/><path fill="#fafafa" d="M123.5 145.5c4.089.912 7.589 2.912 10.5 6a122.324 122.324 0 0 1 7 13c5.89 30.48-2.11 56.48-24 78a9.568 9.568 0 0 1-3-3c-8.316-19.123-10.983-39.123-8-60a89.045 89.045 0 0 0 5-18c3.298-6.117 7.465-11.451 12.5-16Z" style="opacity:1"/><path fill="#d6d6d6" d="M61.5 161.5a530.01 530.01 0 0 0-1 41 4379.16 4379.16 0 0 1-2-32.5c1.367-2.786 2.367-5.62 3-8.5Z" style="opacity:1"/></svg>
