<svg xmlns="http://www.w3.org/2000/svg" width="240" height="300" style="shape-rendering:geometricPrecision;text-rendering:geometricPrecision;image-rendering:optimizeQuality;fill-rule:evenodd;clip-rule:evenodd"><path fill="#fefefe" d="M-.5-.5h240v300H-.5V-.5Z" style="opacity:1"/><path fill="#00CA74" d="M162.5 178.5c-5.984.574-11.984.907-18 1a20.69 20.69 0 0 1-1 5c-4.413 10.888-7.247 22.221-8.5 34a167.533 167.533 0 0 1-3.5 13c-1.675 3.007-2.341 6.34-2 10 .038 2.681-.629 5.181-2 7.5a46.176 46.176 0 0 0-6.5 9.5c-12 9.333-24 9.333-36 0-2.227-5.828-2.893-11.828-2-18a3416.124 3416.124 0 0 1 20.5-61 100.287 100.287 0 0 0-14-1.5c-4.761-3.525-6.094-8.025-4-13.5a226.02 226.02 0 0 0 17-2h7a830.04 830.04 0 0 0 8.5-31c8.58-25.118 17.08-50.118 25.5-75a7556.465 7556.465 0 0 1-58-1.5 24.02 24.02 0 0 1-8.5-4.5c-4.214-9.179-1.38-13.179 8.5-12a1370.49 1370.49 0 0 0 45.5 3c6.897-.8 13.73-1.966 20.5-3.5a80.703 80.703 0 0 1 24 1 6.977 6.977 0 0 1 2.5 3.5c2.072 11.397 1.739 22.73-1 34-8.837 29.005-17.67 58.005-26.5 87a687.42 687.42 0 0 1 16 3.5c2.287 2.243 2.453 4.743.5 7.5-1.992.828-3.492 2.161-4.5 4Z" style="opacity:1"/><path fill="#a6a6a6" d="M102.5 162.5a226.02 226.02 0 0 1-17 2c.418-.722 1.084-1.222 2-1.5a112.97 112.97 0 0 1 15-.5Z" style="opacity:1"/><path fill="#c4c4c4" d="M162.5 178.5c-5.416 1.617-11.083 2.284-17 2 .271 1.88-.396 3.213-2 4a20.69 20.69 0 0 0 1-5 224.832 224.832 0 0 0 18-1Z" style="opacity:1"/><path fill="#878787" d="M131.5 231.5c-.253 3.54-.919 6.873-2 10-.341-3.66.325-6.993 2-10Z" style="opacity:1"/></svg>
